<?xml version="1.0" encoding="utf-8"?>
<!-- Generator: Adobe Illustrator 28.0.0, SVG Export Plug-In . SVG Version: 6.00 Build 0)  -->
<svg version="1.1" id="Layer_1" xmlns="http://www.w3.org/2000/svg" xmlns:xlink="http://www.w3.org/1999/xlink" x="0px" y="0px"
	 viewBox="0 0 288 144" style="enable-background:new 0 0 288 144;" xml:space="preserve">
<style type="text/css">
	.st0{fill:#0F2D52;}
	.st1{fill-rule:evenodd;clip-rule:evenodd;fill:#FAA21B;}
	.st2{fill:#006394;}
	.st3{fill:url(#SVGID_1_);}
	.st4{fill:#75BC43;}
	.st5{fill:#009BA6;}
	.st6{fill:#007378;}
</style>
<g>
	<path class="st0" d="M37.6,120.9c-0.7,0-1.2,0-1.8,0l-0.1-0.1c-0.3-1.2-0.6-2.1-0.9-3.3c-0.7,0-1.3,0-2,0c-0.6,0-1.3,0-2,0
		c-0.4,1.2-0.6,2-0.9,3.3l-0.1,0.1c-0.6,0-1,0-1.6,0l-0.1-0.1c1.8-5.1,3.3-9.4,3.6-10.6l0.1-0.4l0.1-0.1c0.8,0,1.4,0,2.3,0l0.1,0.1
		l0.1,0.3c1.2,4,2.1,6.7,3.4,10.7L37.6,120.9z M32.8,110.9l-1.7,5.3c0.1,0,1.1,0,1.6,0c0.5,0,1.4,0,1.6,0L32.8,110.9z"/>
	<path class="st0" d="M43.7,120.8c0-1.1,0-1.9,0-3v-1.5c0-1-0.1-2.5-1.5-2.5c-1,0-1.8,0.6-2.1,0.9v1c0,1.8,0,3.1,0.1,5l-0.1,0.1
		c-0.6,0-1,0-1.7,0.1l-0.1-0.1c0-1.1,0-1.8,0-2.9c0-1.8,0-3.1-0.2-4.9l0.1-0.1c0.6-0.1,1.1-0.2,1.7-0.3l0.1,0.1c0,0.3,0,0.8,0,0.8
		c0.5-0.3,1.5-1,2.8-1c1.4,0,2.1,0.8,2.3,1.6c0.1,0.4,0.2,1.1,0.2,1.7v1.8c0,1.2,0,2,0.1,3.2l-0.1,0.1c-0.6,0-1,0-1.6,0.1
		L43.7,120.8z"/>
	<path class="st0" d="M50.8,120.8c-0.3,0.1-0.6,0.1-1.2,0.1c-1.8,0-2.2-0.9-2.2-2.3c0-0.6,0-2.1,0-4.7c-0.3,0-0.7,0-1.1,0l-0.1-0.1
		c0-0.4,0-0.7,0-1.1l0.1-0.1c0.1,0,0.4,0,0.6,0c0.2,0,0.4,0,0.5,0c0-0.7,0-1.2-0.1-1.9l0.1-0.1c0.6-0.1,1-0.3,1.6-0.4l0.1,0.1
		c0,0.9-0.1,1.5-0.1,2.4c0.6,0,1.3,0,1.8,0l0.1,0.1c0,0.4,0,0.7,0,1.1l-0.1,0.1c-0.6,0-1.1,0-1.7,0c0,0,0,3.1,0,3.4
		c0,1.9,0,2.4,0.9,2.4c0.3,0,0.7-0.1,0.8-0.1l0.1,0.1C50.9,120,50.9,120.3,50.8,120.8L50.8,120.8z"/>
	<path class="st0" d="M58.2,120.5c-0.5,0.3-1.3,0.6-2.5,0.6c-2.8,0-4.2-1.6-4.2-4.2c0-3.4,2.2-4.4,3.8-4.4c0.2,0,1.2,0,2,0.6
		c1.3,0.9,1.5,2.5,1.5,3.5v0.4l-0.1,0.1c-0.6,0-2,0-3,0c-0.8,0-1.7,0-2.5,0c0,2.3,1.6,2.8,2.6,2.8c1.2,0,2-0.5,2.5-0.9l0.1,0.1
		c-0.1,0.5-0.1,0.9-0.1,1.4L58.2,120.5z M54.8,115.8c0.9,0,1.9,0,2.4,0c0-1-0.5-2.2-1.9-2.2c-1.2,0-2,1.1-2.1,2.2H54.8z"/>
	<path class="st0" d="M65.5,120.8c0-1.1,0-1.9,0-3v-1.5c0-1-0.1-2.5-1.5-2.5c-1,0-1.8,0.6-2.1,0.9v1c0,1.8,0,3.1,0.1,5l-0.1,0.1
		c-0.6,0-1,0-1.7,0.1l-0.1-0.1c0-1.1,0-1.8,0-2.9c0-1.8,0-3.1-0.2-4.9l0.1-0.1c0.6-0.1,1.1-0.2,1.7-0.3l0.1,0.1c0,0.3,0,0.8,0,0.8
		c0.5-0.3,1.5-1,2.8-1c1.4,0,2.1,0.8,2.3,1.6c0.1,0.4,0.2,1.1,0.2,1.7v1.8c0,1.2,0,2,0.1,3.2l-0.1,0.1c-0.6,0-1,0-1.6,0.1
		L65.5,120.8z"/>
	<path class="st0" d="M74.4,120.8c0-1.1,0-1.9,0-3v-1.5c0-1-0.1-2.5-1.5-2.5c-1,0-1.8,0.6-2.1,0.9v1c0,1.8,0,3.1,0.1,5l-0.1,0.1
		c-0.6,0-1,0-1.7,0.1l-0.1-0.1c0-1.1,0-1.8,0-2.9c0-1.8,0-3.1-0.2-4.9l0.1-0.1c0.6-0.1,1.1-0.2,1.7-0.3l0.1,0.1c0,0.3,0,0.8,0,0.8
		c0.5-0.3,1.5-1,2.8-1c1.4,0,2.1,0.8,2.3,1.6c0.1,0.4,0.2,1.1,0.2,1.7v1.8c0,1.2,0,2,0.1,3.2l-0.1,0.1c-0.6,0-1,0-1.6,0.1
		L74.4,120.8z"/>
	<path class="st0" d="M84,120.9c-0.6,0-1,0-1.6,0.1l-0.1-0.1v-0.6c-0.4,0.4-1.1,0.8-2.1,0.8c-1.6,0-2.8-1-2.8-2.7
		c0-2.6,2.9-2.9,4.6-3.1l0.3,0c0-0.6,0-1.6-1.5-1.6c-1.1,0-1.9,0.4-2.4,0.6l-0.1-0.1c0-0.8,0-1,0-1.2l0.1-0.1
		c0.8-0.3,1.9-0.5,2.7-0.5c1.2,0,2.8,0.4,2.8,2.5v2.7C84,118.8,84,119.6,84,120.9L84,120.9z M82.4,116.4l-0.1,0
		c-1.7,0.2-3.1,0.6-3.1,1.8c0,0.4,0.2,1.5,1.5,1.5c0.6,0,1.2-0.2,1.8-0.7V116.4z"/>
	<path class="st0" d="M85.4,120.4c0.1-0.5,0.1-0.8,0.1-1.3l0.1,0c0.4,0.3,1.2,0.8,2.2,0.8c1.1,0,1.7-0.6,1.7-1.2
		c0-0.8-0.8-1-1.5-1.2l-0.7-0.2c-0.7-0.2-2-0.7-2-2.3c0-1.3,1-2.4,3.2-2.4c1.1,0,1.8,0.3,2.3,0.5l0.1,0.1c0,0.5-0.1,0.8-0.1,1.2
		l-0.1,0.1c-0.7-0.5-1.3-0.6-2.1-0.6c-0.9,0-1.5,0.4-1.5,1c0,0.8,1.1,1,1.6,1.2l0.6,0.2c0.5,0.2,2.1,0.7,2.1,2.3
		c0,1.6-1.4,2.7-3.4,2.7c-1.3,0-1.9-0.3-2.5-0.5L85.4,120.4z"/>
	<path class="st0" d="M102.8,120.9c-0.6,0-1,0-1.6,0.1l-0.1-0.1v-0.6c-0.4,0.4-1.1,0.8-2.1,0.8c-1.6,0-2.8-1-2.8-2.7
		c0-2.6,2.9-2.9,4.6-3.1l0.3,0c0-0.6,0-1.6-1.5-1.6c-1.1,0-1.9,0.4-2.4,0.6l-0.1-0.1c0-0.8,0-1,0-1.2l0.1-0.1
		c0.8-0.3,1.9-0.5,2.7-0.5c1.2,0,2.8,0.4,2.8,2.5v2.7C102.8,118.8,102.8,119.6,102.8,120.9L102.8,120.9z M101.2,116.4l-0.1,0
		c-1.7,0.2-3.1,0.6-3.1,1.8c0,0.4,0.2,1.5,1.5,1.5c0.6,0,1.2-0.2,1.8-0.7V116.4z"/>
	<path class="st0" d="M110,120.8c0-1.1,0-1.9,0-3v-1.5c0-1-0.1-2.5-1.5-2.5c-1,0-1.8,0.6-2.1,0.9v1c0,1.8,0,3.1,0.1,5l-0.1,0.1
		c-0.6,0-1,0-1.7,0.1l-0.1-0.1c0-1.1,0-1.8,0-2.9c0-1.8,0-3.1-0.2-4.9l0.1-0.1c0.6-0.1,1.1-0.2,1.7-0.3l0.1,0.1c0,0.3,0,0.8,0,0.8
		c0.5-0.3,1.5-1,2.8-1c1.4,0,2.1,0.8,2.3,1.6c0.1,0.4,0.2,1.1,0.2,1.7v1.8c0,1.2,0,2,0.1,3.2l-0.1,0.1c-0.6,0-1,0-1.6,0.1L110,120.8
		z"/>
	<path class="st0" d="M118.9,120.8l0-0.6c-0.5,0.4-1.1,0.8-2.2,0.8c-0.6,0-1.4-0.2-2.1-0.7c-1.2-0.9-1.4-2.3-1.4-3.3
		c0-2.1,1.1-4.5,4.9-4.5c0.3,0,0.6,0,0.9,0v-0.4c0-1.2,0-2.1-0.1-3.4l0.1-0.1c0.6-0.1,1.1-0.2,1.7-0.3l0.1,0.1
		c-0.1,2.8-0.1,4.8-0.1,7.6c0,1.8,0,3,0.1,4.8l-0.1,0.1c-0.6,0-1,0-1.6,0.1L118.9,120.8z M118.9,116.1c0-0.7,0-1.8,0-2.2
		c-0.3,0-0.5,0-0.8,0c-2.9,0-3.2,2.1-3.2,3.2c0,2,1.2,2.7,2.2,2.7c0.8,0,1.4-0.4,1.7-0.7c0-0.5,0-1.5,0-2.3V116.1z"/>
	<path class="st0" d="M128.7,120.9c-0.6,0-1.1,0-1.7,0l-0.1-0.1c0-1.7,0-2.9,0-4.9c0-2.1,0-3.8-0.1-6.1l0.1-0.1h0.4
		c0.3,0,2.4-0.1,2.8-0.1c1,0,2.1,0,3,0.7c0.6,0.4,0.8,0.8,0.9,1c0.4,0.7,0.4,1.5,0.4,1.7c0,0.2,0,1.2-0.7,2.1
		c-0.9,1.1-2.2,1.5-4.3,1.5c-0.3,0-0.5,0-0.7,0c0,1.5,0.1,2.6,0.1,4.1L128.7,120.9z M129,115.4c1.6,0,2.5-0.1,3.1-0.9
		c0.3-0.3,0.5-0.7,0.5-1.4c0-2-1.6-2.1-2.3-2.1c-1,0-1.2,0-1.7,0c0,0.7,0,1.5,0,2.2c0,0.7,0,1.4,0,2.1H129z"/>
	<path class="st0" d="M137.4,120.9c-0.6,0-1.1,0-1.7,0.1l-0.1-0.1v-0.7c0-0.2,0-2.5,0-3.1c0-1.2,0-2.9-0.1-4.1l0.1-0.1
		c0.6-0.1,1-0.2,1.6-0.3l0.1,0.1l-0.1,1.3c0.2-0.5,0.6-1.5,1.9-1.5c0.3,0,0.4,0,0.5,0l0.1,0.1c-0.1,0.6-0.2,1-0.3,1.6l-0.1,0.1
		c-0.3-0.1-0.5-0.1-0.6-0.1c-0.4,0-1.3,0.3-1.3,1.8v1.2C137.4,118.5,137.4,119.4,137.4,120.9L137.4,120.9z"/>
	<path class="st0" d="M144.1,121.1c-1.7,0-3.9-0.8-3.9-4.3c0-3.6,2.4-4.3,4-4.3c1.6,0,3.8,0.7,3.8,4.3
		C148,120.3,145.8,121.1,144.1,121.1z M144.2,113.7c-1.6,0-2.2,1.3-2.2,3.1c0,2.4,1,3.1,2.2,3.1c1.6,0,2.2-1.1,2.2-3.1
		C146.3,115.8,146.1,113.7,144.2,113.7z"/>
	<path class="st0" d="M151.3,124.7c-0.5,0-1,0-1.7,0l-0.1-0.1c0.1-1.3,0.1-2.2,0.1-3.6c0-1.4,0-3.6,0-4.1c0-1.5,0-2.5-0.2-4l0.1-0.1
		c0.6-0.1,1.1-0.2,1.7-0.3l0.1,0.1l0,0.7c0.5-0.3,1.2-0.9,2.3-0.9c2.2,0,3.4,1.9,3.4,3.8c0,1.2-0.3,2.1-0.7,2.6
		c-1.1,1.7-2.9,2.1-4.3,2.1c-0.3,0-0.5,0-0.7,0C151.3,122.3,151.3,123.2,151.3,124.7L151.3,124.7z M151.9,119.7
		c2.1,0,3.3-1.3,3.3-3.3c0-1.9-1.2-2.6-2.2-2.6c-0.9,0-1.5,0.4-1.8,0.7c0,0.5,0,1.7,0,2.5c0,0.9,0,1.8,0,2.7
		C151.5,119.7,151.7,119.7,151.9,119.7z"/>
	<path class="st0" d="M164.5,120.9c-0.6,0-1,0-1.6,0.1l-0.1-0.1v-0.6c-0.4,0.4-1.1,0.8-2.1,0.8c-1.6,0-2.8-1-2.8-2.7
		c0-2.6,2.9-2.9,4.6-3.1l0.3,0c0-0.6,0-1.6-1.5-1.6c-1.1,0-1.9,0.4-2.4,0.6l-0.1-0.1c0-0.8,0-1,0-1.2l0.1-0.1
		c0.8-0.3,1.9-0.5,2.7-0.5c1.2,0,2.8,0.4,2.8,2.5v2.7C164.4,118.8,164.5,119.6,164.5,120.9L164.5,120.9z M162.8,116.4l-0.1,0
		c-1.7,0.2-3.1,0.6-3.1,1.8c0,0.4,0.2,1.5,1.5,1.5c0.6,0,1.2-0.2,1.8-0.7V116.4z"/>
	<path class="st0" d="M166.4,119.5c0.4-0.6,0.7-1,1.1-1.6c-1.2-0.5-1.5-1.5-1.5-2.4c0-0.9,0.3-1.5,0.6-1.8c0.8-1,2-1.1,2.9-1.1
		c0.3,0,0.8,0,1.3,0c1.5,0,1.9,0,2.4,0l0.1,0.1c0,0.4,0,0.6-0.1,1l-0.1,0.1l-1.3-0.1c0.3,0.3,0.7,0.9,0.7,1.8c0,1.5-1.1,2.8-3.1,2.8
		c-0.3,0-0.4,0-0.7,0l-0.5,0.7c1.9,0.6,3.1,0.6,3.9,1.2c0.9,0.7,0.9,1.6,0.9,1.8c0,1.4-1.1,2.9-3.6,2.9c-2.4,0-3.6-1.1-3.6-2.5
		c0-1.2,0.8-1.8,1.4-2.3c-0.2-0.1-0.5-0.2-0.7-0.3L166.4,119.5z M168.2,120.5c-0.3,0.4-0.9,0.8-0.9,1.7c0,0.8,0.6,1.6,2.1,1.6
		c1.3,0,1.9-0.7,1.9-1.4c0-1-1-1.3-1.7-1.5L168.2,120.5z M169.2,113.7c-1.1,0-1.7,0.8-1.7,1.8c0,0.5,0.2,1.8,1.7,1.8
		c1.5,0,1.6-1.4,1.6-1.8C170.8,114.6,170.4,113.7,169.2,113.7z"/>
	<path class="st0" d="M180.3,120.9c-0.6,0-1,0-1.6,0.1l-0.1-0.1v-0.6c-0.4,0.4-1.1,0.8-2.1,0.8c-1.6,0-2.8-1-2.8-2.7
		c0-2.6,2.9-2.9,4.6-3.1l0.3,0c0-0.6,0-1.6-1.5-1.6c-1.1,0-1.9,0.4-2.4,0.6l-0.1-0.1c0-0.8,0-1,0-1.2l0.1-0.1
		c0.8-0.3,1.9-0.5,2.7-0.5c1.2,0,2.8,0.4,2.8,2.5v2.7C180.3,118.8,180.3,119.6,180.3,120.9L180.3,120.9z M178.6,116.4l-0.1,0
		c-1.7,0.2-3.1,0.6-3.1,1.8c0,0.4,0.2,1.5,1.5,1.5c0.6,0,1.2-0.2,1.8-0.7V116.4z"/>
	<path class="st0" d="M185.6,120.8c-0.3,0.1-0.6,0.1-1.2,0.1c-1.8,0-2.2-0.9-2.2-2.3c0-0.6,0-2.1,0-4.7c-0.3,0-0.7,0-1.1,0l-0.1-0.1
		c0-0.4,0-0.7,0-1.1l0.1-0.1c0.1,0,0.4,0,0.6,0c0.2,0,0.4,0,0.5,0c0-0.7,0-1.2-0.1-1.9l0.1-0.1c0.6-0.1,1-0.3,1.6-0.4l0.1,0.1
		c0,0.9-0.1,1.5-0.1,2.4c0.6,0,1.3,0,1.8,0l0.1,0.1c0,0.4,0,0.7,0,1.1l-0.1,0.1c-0.6,0-1.1,0-1.7,0c0,0,0,3.1,0,3.4
		c0,1.9,0,2.4,0.9,2.4c0.3,0,0.7-0.1,0.8-0.1l0.1,0.1C185.7,120,185.7,120.3,185.6,120.8L185.6,120.8z"/>
	<path class="st0" d="M186.7,120.8c0.1-1.2,0.1-2.1,0.1-3.3c0-2.4,0-3.3-0.2-4.5l0.1-0.1c0.6-0.1,1.1-0.2,1.7-0.3l0.2,0.1
		c-0.1,1.4-0.1,2.3-0.1,3.7c0,1.6,0,2.8,0.1,4.4l-0.1,0.1c-0.6,0-1.1,0-1.7,0.1L186.7,120.8z M186.7,110.4c0-0.2,0-0.4,0-0.6
		c0-0.3,0-0.5,0-0.9l0.1-0.1c0.7,0,1.1-0.1,1.8-0.2l0.1,0.1c0,0.2,0,0.5,0,0.7c0,0.3,0,0.5,0,0.8l-0.1,0.1
		C187.9,110.4,187.4,110.4,186.7,110.4L186.7,110.4z"/>
	<path class="st0" d="M193.9,121.1c-1.7,0-3.9-0.8-3.9-4.3c0-3.6,2.4-4.3,4-4.3c1.6,0,3.8,0.7,3.8,4.3
		C197.8,120.3,195.6,121.1,193.9,121.1z M194,113.7c-1.6,0-2.2,1.3-2.2,3.1c0,2.4,1,3.1,2.2,3.1c1.6,0,2.2-1.1,2.2-3.1
		C196.1,115.8,196,113.7,194,113.7z"/>
	<path class="st0" d="M204.6,120.8c0-1.1,0-1.9,0-3v-1.5c0-1-0.1-2.5-1.5-2.5c-1,0-1.8,0.6-2.1,0.9v1c0,1.8,0,3.1,0.1,5l-0.1,0.1
		c-0.6,0-1,0-1.7,0.1l-0.1-0.1c0-1.1,0-1.8,0-2.9c0-1.8,0-3.1-0.2-4.9l0.1-0.1c0.6-0.1,1.1-0.2,1.7-0.3l0.1,0.1c0,0.3,0,0.8,0,0.8
		c0.5-0.3,1.5-1,2.8-1c1.4,0,2.1,0.8,2.3,1.6c0.1,0.4,0.2,1.1,0.2,1.7v1.8c0,1.2,0,2,0.1,3.2l-0.1,0.1c-0.6,0-1,0-1.6,0.1
		L204.6,120.8z"/>
	<path class="st0" d="M212.1,120.3c0-0.5,0.1-0.9,0.1-1.5l0.2-0.1c0.6,0.4,1.4,0.9,2.8,0.9c1.7,0,2.3-0.8,2.3-1.8
		c0-0.7-0.3-1.2-1.6-1.8l-1.1-0.5c-1.2-0.5-2.6-1.2-2.6-3.1c0-1.5,1.1-3.1,3.8-3.1c0.6,0,1.5,0,2.8,0.5l0.1,0.1
		c-0.1,0.5-0.1,0.9-0.1,1.4l-0.1,0.1c-0.9-0.5-1.6-0.7-2.6-0.7c-1.4,0-2.2,0.6-2.2,1.5c0,0.7,0.3,1.1,1.7,1.7l1.2,0.5
		c1.1,0.5,2.7,1.1,2.7,3.2c0,1.8-1.4,3.4-4.1,3.4c-1.4,0-2.5-0.4-3.1-0.7L212.1,120.3z"/>
	<path class="st0" d="M224.3,121.1c-1.7,0-3.9-0.8-3.9-4.3c0-3.6,2.4-4.3,4-4.3c1.6,0,3.8,0.7,3.8,4.3
		C228.2,120.3,225.9,121.1,224.3,121.1z M224.3,113.7c-1.6,0-2.2,1.3-2.2,3.1c0,2.4,1,3.1,2.2,3.1c1.6,0,2.2-1.1,2.2-3.1
		C226.5,115.8,226.3,113.7,224.3,113.7z"/>
	<path class="st0" d="M235.4,120.5c-0.4,0.2-1.1,0.6-2.2,0.6c-2.6,0-4-1.9-4-4.2c0-2.2,1.3-4.4,4-4.4c0.4,0,1.1,0,2.2,0.5l0.1,0.1
		c-0.1,0.5-0.1,0.8-0.1,1.2l-0.1,0.1c-0.8-0.5-1.4-0.6-1.7-0.6c-1.8,0-2.5,1.6-2.5,3c0,2.3,1.3,2.9,2.5,2.9c1,0,1.6-0.5,2-0.8
		l0.1,0.1C235.5,119.5,235.5,119.9,235.4,120.5L235.4,120.5z"/>
	<path class="st0" d="M236.5,120.8c0.1-1.2,0.1-2.1,0.1-3.3c0-2.4,0-3.3-0.2-4.5l0.1-0.1c0.6-0.1,1.1-0.2,1.7-0.3l0.2,0.1
		c-0.1,1.4-0.1,2.3-0.1,3.7c0,1.6,0,2.8,0.1,4.4l-0.1,0.1c-0.6,0-1.1,0-1.7,0.1L236.5,120.8z M236.5,110.4c0-0.2,0-0.4,0-0.6
		c0-0.3,0-0.5,0-0.9l0.1-0.1c0.7,0,1.1-0.1,1.8-0.2l0.1,0.1c0,0.2,0,0.5,0,0.7c0,0.3,0,0.5,0,0.8l-0.1,0.1
		C237.7,110.4,237.2,110.4,236.5,110.4L236.5,110.4z"/>
	<path class="st0" d="M246.5,120.5c-0.5,0.3-1.3,0.6-2.5,0.6c-2.8,0-4.2-1.6-4.2-4.2c0-3.4,2.2-4.4,3.8-4.4c0.2,0,1.2,0,2,0.6
		c1.3,0.9,1.5,2.5,1.5,3.5v0.4L247,117c-0.6,0-2,0-3,0c-0.8,0-1.7,0-2.5,0c0,2.3,1.6,2.8,2.6,2.8c1.2,0,2-0.5,2.5-0.9l0.1,0.1
		c-0.1,0.5-0.1,0.9-0.1,1.4L246.5,120.5z M243.1,115.8c0.9,0,1.9,0,2.4,0c0-1-0.5-2.2-1.9-2.2c-1.2,0-2,1.1-2.1,2.2H243.1z"/>
	<path class="st0" d="M251.9,120.8c-0.3,0.1-0.6,0.1-1.2,0.1c-1.8,0-2.2-0.9-2.2-2.3c0-0.6,0-2.1,0-4.7c-0.3,0-0.7,0-1.1,0l-0.1-0.1
		c0-0.4,0-0.7,0-1.1l0.1-0.1c0.1,0,0.4,0,0.6,0c0.2,0,0.4,0,0.5,0c0-0.7,0-1.2-0.1-1.9l0.1-0.1c0.6-0.1,1-0.3,1.6-0.4l0.1,0.1
		c0,0.9-0.1,1.5-0.1,2.4c0.6,0,1.3,0,1.8,0l0.1,0.1c0,0.4,0,0.7,0,1.1l-0.1,0.1c-0.6,0-1.1,0-1.7,0c0,0,0,3.1,0,3.4
		c0,1.9,0,2.4,0.9,2.4c0.3,0,0.7-0.1,0.8-0.1l0.1,0.1C252,120,252,120.3,251.9,120.8L251.9,120.8z"/>
	<path class="st0" d="M255.1,124.7c-0.6,0-1,0-1.7,0l-0.1-0.1c0.6-1.2,1-2.3,1.6-3.6c-0.4-1.2-1.9-5.3-3-8.2l0-0.1
		c0.6,0,1.1-0.1,1.8-0.2l0.1,0.1c0.3,1.1,0.6,2,2,6.1c1.3-4,1.6-4.8,1.9-6.1l0.1-0.1h1.5l0,0.1c-0.9,2.2-3.1,7.8-4.1,11.9
		L255.1,124.7z"/>
</g>
<circle class="st1" cx="99" cy="26.3" r="6.1"/>
<g>
	<path class="st2" d="M127.9,41.7h-2.6c-0.6,0-3.1,0.1-3.1,0.1l-0.2-0.2c0.1-3,0.2-5.9,0.2-8.8v-2.2c0-3.7,0-7.4-0.3-11.1l0.2-0.2
		h2.2c1.1,0,2.9-0.1,3.6-0.1l0.1,0.2c-0.1,4.4-0.2,8.7-0.2,13.1c0,3,0.1,6,0.2,9L127.9,41.7z"/>
	<path class="st2" d="M147,37.6c-0.1,1.3-0.2,2.7-0.2,3.9l-0.3,0.2c-4.6,0-9.3,0-14,0.1l-0.2-0.2c0.1-2.9,0.2-5.9,0.2-8.8v-6.6
		c0-2.3,0-4.5-0.2-6.7l0.2-0.2c3.5,0,11.9-0.1,14-0.1l0.2,0.2c-0.1,1.3-0.2,2.4-0.2,3.7l-0.2,0.2c-2.7-0.1-5.4-0.1-8.1-0.1
		c0,0.6,0,1.5,0,2.4c0,1,0,2,0,2.7c2.6,0,5.1,0,7.7-0.1l0.2,0.2c-0.1,1.2-0.2,2.4-0.2,3.6l-0.2,0.2c-4.7,0-7.4,0-7.4,0
		c0,1.9,0,3.7,0.1,5.6c2.9,0,5.8-0.1,8.7-0.2L147,37.6z"/>
	<path class="st2" d="M164.6,37.6c-0.1,1.3-0.2,2.7-0.2,3.9l-0.3,0.2c-4.6,0-9.3,0-14,0.1l-0.2-0.2c0.1-2.9,0.2-5.9,0.2-8.8v-6.6
		c0-2.3,0-4.5-0.2-6.7l0.2-0.2c3.5,0,11.9-0.1,14-0.1l0.2,0.2c-0.1,1.3-0.2,2.4-0.2,3.7l-0.2,0.2c-2.7-0.1-5.4-0.1-8.1-0.1
		c0,0.6,0,1.5,0,2.4c0,1,0,2,0,2.7c2.6,0,5.1,0,7.7-0.1l0.2,0.2c-0.1,1.2-0.2,2.4-0.2,3.6l-0.2,0.2c-4.7,0-7.4,0-7.4,0
		c0,1.9,0,3.7,0.1,5.6c2.9,0,5.8-0.1,8.7-0.2L164.6,37.6z"/>
	<path class="st2" d="M182.1,37.6c-0.1,1.3-0.2,2.7-0.2,3.9l-0.3,0.2c-4.6,0-9.3,0-14,0.1l-0.2-0.2c0.1-2.9,0.2-5.9,0.2-8.8v-6.6
		c0-2.3,0-4.5-0.2-6.7l0.2-0.2c3.5,0,11.9-0.1,14-0.1l0.2,0.2c-0.1,1.3-0.2,2.4-0.2,3.7l-0.2,0.2c-2.7-0.1-5.4-0.1-8.1-0.1
		c0,0.6,0,1.5,0,2.4c0,1,0,2,0,2.7c2.6,0,5.1,0,7.7-0.1l0.2,0.2c-0.1,1.2-0.2,2.4-0.2,3.6l-0.2,0.2c-4.7,0-7.4,0-7.4,0
		c0,1.9,0,3.7,0.1,5.6c2.9,0,5.8-0.1,8.7-0.2L182.1,37.6z"/>
</g>
<radialGradient id="SVGID_1_" cx="186.5135" cy="55.6192" r="83.2212" gradientTransform="matrix(1 0 0 0.6551 0 19.1846)" gradientUnits="userSpaceOnUse">
	<stop  offset="0" style="stop-color:#009BA6"/>
	<stop  offset="0.1441" style="stop-color:#00949E"/>
	<stop  offset="0.6842" style="stop-color:#007C82"/>
	<stop  offset="1" style="stop-color:#007378"/>
</radialGradient>
<path class="st3" d="M120.7,96.2l-0.5,0.3h-12.4l-0.3-0.5c4.9-15.6,9.9-31.3,14.7-46.9l0.4-0.3c5.7-0.1,12.6-0.2,17.2-0.2l0.5,0.3
	c4.6,15.7,9.2,31.3,13.7,47l-0.5,0.5h-7.1c-2.2,0-4.6,0.1-6.8,0.2l-0.5-0.4c-0.9-3.8-1.6-7.6-2.6-11.4h-13.2L120.7,96.2z
	 M134.2,75.1c0,0-2.6-11.1-3.9-17.4c-0.8,3.5-1.8,7-4.5,17.4H134.2z M171.6,96.5h-5.5c-0.9,0-1.8,0-8.2,0.2l-0.5-0.3
	c0.2-9.9,0.5-19.8,0.5-29.7c0-5.8-0.1-11.6-0.3-17.5l0.5-0.3c4.7,0,15.9-0.2,18.8-0.2c6.9,0,14.3,0.7,17.8,7.2c0.8,1.5,1.8,4,1.8,8
	c0,1.8-0.1,6.9-3.6,11.2c-4.8,6-12.9,6.1-19.9,6.1h-1.1c0,0-0.1,3.8-0.1,5.5c0,3.1,0.1,6.3,0.2,9.4L171.6,96.5z M172,71.2h1.1
	c3.8,0,8.6-0.9,8.6-7.1c0-4.3-2.8-5.8-6.5-5.8H172V71.2z M220.4,82.4h-21l-0.3-0.3l0.4-9.5l0.4-0.5c2.3,0,8.1,0.1,12.1,0.1
	c3,0,5.9,0,9-0.1l0.3,0.4c-0.2,2.5-0.3,6.3-0.5,9.4L220.4,82.4z M227.6,83.5c3.9,3.8,10.1,4,11.6,4c4.4,0,6.4-2.2,6.4-4.3
	c0-2.8-2.6-4-4.7-4.8l-3.4-1.4c-10.3-4.1-10.9-10.5-10.9-14.4c0-6.2,3-14.9,18-14.9c2,0,7,0.1,12.7,2.7l0.3,0.4
	c-0.3,3.2-0.4,7-0.6,10.5l-0.6,0.3c-1.5-1.2-4.9-4.1-10.5-4.1c-3.5,0-5.1,2.2-5.1,4.1c0,2.4,2,3.4,4.5,4.5l4.7,2
	c7.7,3.2,10.1,7.8,10.1,13.6c0,3.8-1.6,8.4-4.8,11.3c-4.2,3.8-9.1,4.7-15.3,4.7c-1.6,0-8.2-0.1-12.8-2.2l-0.5-0.7
	c0.3-3.6,0.5-7.4,0.5-10.9L227.6,83.5z"/>
<path class="st4" d="M104.5,49.3l1-3.2c0.2-0.6-0.3-1.3-0.9-1.3c-7.8-0.1-13.9-2.3-18.2-6.4c-4.5-4.5-6-10.3-6.4-13.7
	c-0.1-0.5-0.5-0.8-1-0.8h-3.2c-0.6,0-1,0.5-1,1.1c0.5,4,2.1,11.3,7.9,17c5.1,5,12,7.7,20.8,7.9C103.9,50,104.3,49.7,104.5,49.3z"/>
<path class="st5" d="M98.4,61.3c-32.1-1.8-35.7-28.8-36.1-35.9c0-0.5-0.5-0.9-1-0.9h-5.2c-0.6,0-1,0.5-1,1
	c0.5,8.3,4.9,40.1,41.5,42.9c0.5,0,0.9-0.3,1-0.7l1.6-5.1C99.5,62,99.1,61.4,98.4,61.3z"/>
<path class="st2" d="M92.3,80.8c-47.8-6.2-49.5-45.7-49.2-55.3c0-0.6-0.4-1-1-1h-7.3c-0.5,0-1,0.4-1,0.9C33.8,32.7,34.7,52,47.7,68
	c9.7,11.9,23.9,19.2,42.2,21.8c0.5,0.1,0.9-0.2,1.1-0.7l2.2-7.1C93.3,81.5,93,80.9,92.3,80.8z"/>
<g>
	<path class="st0" d="M29.4,61.1v28.2c0,3.7,3,6.7,6.7,6.7h34.5c1,0,1.5-1.3,0.7-1.9c0,0-11.5-1.2-24-11.6
		c-11.9-10-16.2-22.3-16.2-22.3C30.4,59.7,29.4,60.2,29.4,61.1z"/>
</g>
<g>
	<path class="st6" d="M261.4,54.1h-0.5l0,0c0-0.3,0-1.1,0-1.4v-1h-0.2c-0.2,0-0.3,0-0.5,0l0,0c0-0.1,0-0.2,0-0.3v-0.1l0,0h2l0,0
		c0,0.2,0,0.2,0,0.4l0,0h-0.7v1C261.5,53.2,261.5,53.6,261.4,54.1L261.4,54.1z M264,53.5c0.2-0.9,0.4-1.5,0.6-2.2l0,0h0.8l0,0
		c0,0,0,1.6,0.1,2.7l0,0c-0.2,0-0.3,0-0.5,0l0,0c0-0.4,0-2.4,0-2.4l-0.7,2.4l0,0H264c-0.1,0-0.2,0-0.4,0l0,0
		c-0.2-0.6-0.4-1.5-0.6-2.4c0,1.7,0,2,0,2.4l0,0c-0.2,0-0.3,0-0.5,0l0-0.1c0.1-0.8,0.1-1.1,0.1-2.7l0,0h0.8l0,0
		C263.5,51.8,263.7,52.6,264,53.5z"/>
</g>
</svg>
